<svg viewBox="0 0 1600 1600" xmlns="http://www.w3.org/2000/svg">
<defs>
      <radialGradient id="bgGrad" cx="50%" cy="35%" r="85%">
        <stop offset="0%" stop-color="#2a9fd6"/><stop offset="30%" stop-color="#0b4a6b"/><stop offset="60%" stop-color="#041625"/><stop offset="100%" stop-color="#010a12"/>
      </radialGradient>
      <filter id="blurSoft" x="-60%" y="-60%" width="220%" height="220%"><feGaussianBlur stdDeviation="34"/></filter>
      <filter id="blurSoft2" x="-60%" y="-60%" width="220%" height="220%"><feGaussianBlur stdDeviation="20"/></filter>
      <symbol id="sparkle" viewBox="-10 -10 20 20">
  <path d="M0,-10 C1.2,-3 3,-1.2 10,0 C3,1.2 1.2,3 0,10 C-1.2,3 -3,1.2 -10,0 C-3,-1.2 -1.2,-3 0,-10 Z" fill="#f3dfa0"/>
</symbol>
      
    </defs>
<rect width="1600" height="1600" fill="url(#bgGrad)"/>
<g filter="url(#blurSoft)"><ellipse cx="160.0" cy="240.0" rx="151.0" ry="108.3" fill="#2a9fd6" transform="rotate(-25.3 160.0 240.0)"/><ellipse cx="340.0" cy="400.0" rx="248.5" ry="148.3" fill="#0b4a6b" transform="rotate(-36.3 340.0 400.0)"/><ellipse cx="520.0" cy="560.0" rx="250.8" ry="98.0" fill="#2a9fd6" transform="rotate(-29.9 520.0 560.0)"/><ellipse cx="700.0" cy="720.0" rx="231.6" ry="106.5" fill="#041625" transform="rotate(-26.4 700.0 720.0)"/><ellipse cx="880.0" cy="880.0" rx="223.0" ry="119.1" fill="#041625" transform="rotate(-37.6 880.0 880.0)"/><ellipse cx="800.0" cy="160.0" rx="210.8" ry="108.2" fill="#0b4a6b" transform="rotate(28.8 800.0 160.0)"/><ellipse cx="980.0" cy="320.0" rx="190.2" ry="130.5" fill="#041625" transform="rotate(29.8 980.0 320.0)"/><ellipse cx="1160.0" cy="480.0" rx="226.6" ry="129.9" fill="#2a9fd6" transform="rotate(20.2 1160.0 480.0)"/><ellipse cx="1340.0" cy="640.0" rx="160.4" ry="118.5" fill="#2a9fd6" transform="rotate(20.3 1340.0 640.0)"/><ellipse cx="1520.0" cy="800.0" rx="211.4" ry="145.8" fill="#0b4a6b" transform="rotate(10.9 1520.0 800.0)"/><ellipse cx="80.0" cy="880.0" rx="232.8" ry="130.5" fill="#0b4a6b" transform="rotate(-8.7 80.0 880.0)"/><ellipse cx="260.0" cy="1040.0" rx="240.3" ry="132.8" fill="#041625" transform="rotate(-21.5 260.0 1040.0)"/><ellipse cx="440.0" cy="1200.0" rx="163.0" ry="93.5" fill="#0b4a6b" transform="rotate(-22.8 440.0 1200.0)"/><ellipse cx="620.0" cy="1360.0" rx="250.7" ry="128.1" fill="#2a9fd6" transform="rotate(-16.9 620.0 1360.0)"/><ellipse cx="800.0" cy="1520.0" rx="215.2" ry="126.2" fill="#0b4a6b" transform="rotate(-18.5 800.0 1520.0)"/><ellipse cx="880.0" cy="880.0" rx="156.2" ry="96.8" fill="#041625" transform="rotate(15.7 880.0 880.0)"/><ellipse cx="1040.0" cy="1040.0" rx="201.4" ry="138.1" fill="#0b4a6b" transform="rotate(31.9 1040.0 1040.0)"/><ellipse cx="1200.0" cy="1200.0" rx="243.0" ry="136.3" fill="#041625" transform="rotate(20.8 1200.0 1200.0)"/><ellipse cx="1360.0" cy="1360.0" rx="167.2" ry="110.8" fill="#041625" transform="rotate(18.9 1360.0 1360.0)"/><ellipse cx="1520.0" cy="1520.0" rx="249.4" ry="135.1" fill="#041625" transform="rotate(30.0 1520.0 1520.0)"/></g><g><circle cx="881.7" cy="302.4" r="3.0397721577652224" fill="#d8f4ff" opacity="0.35" stroke="#ffffff" stroke-width="0.6"/><circle cx="941.2" cy="1388.3" r="4.103643651229389" fill="#d8f4ff" opacity="0.53" stroke="#ffffff" stroke-width="0.6"/><circle cx="503.4" cy="675.1" r="4.967665104038422" fill="#d8f4ff" opacity="0.55" stroke="#ffffff" stroke-width="0.6"/><circle cx="257.9" cy="480.6" r="2.5620126820041946" fill="#d8f4ff" opacity="0.32" stroke="#ffffff" stroke-width="0.6"/><circle cx="1026.4" cy="259.2" r="4.827068204810244" fill="#d8f4ff" opacity="0.54" stroke="#ffffff" stroke-width="0.6"/><circle cx="1533.3" cy="1056.2" r="4.258480189667081" fill="#d8f4ff" opacity="0.36" stroke="#ffffff" stroke-width="0.6"/><circle cx="1091.1" cy="592.2" r="3.1578580626064623" fill="#d8f4ff" opacity="0.41" stroke="#ffffff" stroke-width="0.6"/><circle cx="149.9" cy="81.8" r="2.3693844808797233" fill="#d8f4ff" opacity="0.53" stroke="#ffffff" stroke-width="0.6"/><circle cx="1474.7" cy="763.4" r="5.023556518050671" fill="#d8f4ff" opacity="0.5" stroke="#ffffff" stroke-width="0.6"/><circle cx="657.1" cy="1278.8" r="3.1123092069437437" fill="#d8f4ff" opacity="0.46" stroke="#ffffff" stroke-width="0.6"/><circle cx="798.7" cy="790.6" r="3.865634833334047" fill="#d8f4ff" opacity="0.48" stroke="#ffffff" stroke-width="0.6"/><circle cx="951.4" cy="570.0" r="5.697729532355963" fill="#d8f4ff" opacity="0.5" stroke="#ffffff" stroke-width="0.6"/><circle cx="232.7" cy="1110.5" r="3.957129470105047" fill="#d8f4ff" opacity="0.59" stroke="#ffffff" stroke-width="0.6"/><circle cx="810.6" cy="154.6" r="5.221776570499465" fill="#d8f4ff" opacity="0.5" stroke="#ffffff" stroke-width="0.6"/><circle cx="1449.7" cy="871.5" r="5.114524259194752" fill="#d8f4ff" opacity="0.47" stroke="#ffffff" stroke-width="0.6"/><circle cx="587.2" cy="62.5" r="3.41525677409523" fill="#d8f4ff" opacity="0.46" stroke="#ffffff" stroke-width="0.6"/><circle cx="767.0" cy="1010.2" r="4.635298477597516" fill="#d8f4ff" opacity="0.35" stroke="#ffffff" stroke-width="0.6"/><circle cx="1040.9" cy="1324.2" r="5.074304263240185" fill="#d8f4ff" opacity="0.54" stroke="#ffffff" stroke-width="0.6"/><circle cx="349.5" cy="1177.6" r="3.618911409023983" fill="#d8f4ff" opacity="0.29" stroke="#ffffff" stroke-width="0.6"/><circle cx="342.3" cy="515.6" r="5.08672214915658" fill="#d8f4ff" opacity="0.26" stroke="#ffffff" stroke-width="0.6"/><circle cx="334.3" cy="813.2" r="3.827004553095483" fill="#d8f4ff" opacity="0.27" stroke="#ffffff" stroke-width="0.6"/><circle cx="127.2" cy="1375.2" r="5.569408536222592" fill="#d8f4ff" opacity="0.49" stroke="#ffffff" stroke-width="0.6"/><circle cx="384.1" cy="1195.1" r="4.840096724310744" fill="#d8f4ff" opacity="0.39" stroke="#ffffff" stroke-width="0.6"/><circle cx="498.1" cy="1043.6" r="3.5242739968055288" fill="#d8f4ff" opacity="0.41" stroke="#ffffff" stroke-width="0.6"/><circle cx="246.5" cy="406.6" r="4.075128091461099" fill="#d8f4ff" opacity="0.41" stroke="#ffffff" stroke-width="0.6"/><circle cx="832.7" cy="246.9" r="4.442258173023245" fill="#d8f4ff" opacity="0.29" stroke="#ffffff" stroke-width="0.6"/><circle cx="946.1" cy="441.5" r="4.3074018380017876" fill="#d8f4ff" opacity="0.35" stroke="#ffffff" stroke-width="0.6"/><circle cx="160.2" cy="51.9" r="5.087992753076349" fill="#d8f4ff" opacity="0.33" stroke="#ffffff" stroke-width="0.6"/><circle cx="836.1" cy="469.1" r="2.005033223005072" fill="#d8f4ff" opacity="0.51" stroke="#ffffff" stroke-width="0.6"/><circle cx="988.8" cy="135.4" r="2.5426622363402966" fill="#d8f4ff" opacity="0.53" stroke="#ffffff" stroke-width="0.6"/><circle cx="1062.2" cy="1556.2" r="3.7679690596045186" fill="#d8f4ff" opacity="0.57" stroke="#ffffff" stroke-width="0.6"/><circle cx="279.8" cy="1424.5" r="3.06943824500981" fill="#d8f4ff" opacity="0.31" stroke="#ffffff" stroke-width="0.6"/><circle cx="1015.1" cy="345.4" r="4.052800914917441" fill="#d8f4ff" opacity="0.59" stroke="#ffffff" stroke-width="0.6"/><circle cx="195.4" cy="564.1" r="5.2331708372603005" fill="#d8f4ff" opacity="0.26" stroke="#ffffff" stroke-width="0.6"/><circle cx="429.5" cy="800.4" r="2.051704565795214" fill="#d8f4ff" opacity="0.27" stroke="#ffffff" stroke-width="0.6"/><circle cx="1197.4" cy="130.7" r="4.522945607502634" fill="#d8f4ff" opacity="0.43" stroke="#ffffff" stroke-width="0.6"/><circle cx="525.9" cy="0.3" r="3.0806553408948627" fill="#d8f4ff" opacity="0.26" stroke="#ffffff" stroke-width="0.6"/><circle cx="1395.5" cy="357.0" r="4.183209577921408" fill="#d8f4ff" opacity="0.53" stroke="#ffffff" stroke-width="0.6"/><circle cx="1454.2" cy="744.9" r="4.676287143769644" fill="#d8f4ff" opacity="0.57" stroke="#ffffff" stroke-width="0.6"/><circle cx="97.5" cy="967.6" r="3.208724056493568" fill="#d8f4ff" opacity="0.57" stroke="#ffffff" stroke-width="0.6"/><circle cx="517.8" cy="1242.7" r="3.0734747368302595" fill="#d8f4ff" opacity="0.29" stroke="#ffffff" stroke-width="0.6"/><circle cx="393.7" cy="92.3" r="2.735228517680334" fill="#d8f4ff" opacity="0.52" stroke="#ffffff" stroke-width="0.6"/><circle cx="1078.2" cy="385.5" r="3.632358282553709" fill="#d8f4ff" opacity="0.55" stroke="#ffffff" stroke-width="0.6"/><circle cx="715.6" cy="1235.3" r="4.821627772758436" fill="#d8f4ff" opacity="0.59" stroke="#ffffff" stroke-width="0.6"/><circle cx="708.1" cy="1253.3" r="4.550414178362784" fill="#d8f4ff" opacity="0.27" stroke="#ffffff" stroke-width="0.6"/><circle cx="1093.0" cy="1230.5" r="4.890188928574965" fill="#d8f4ff" opacity="0.53" stroke="#ffffff" stroke-width="0.6"/><circle cx="896.0" cy="859.9" r="3.892195926044494" fill="#d8f4ff" opacity="0.43" stroke="#ffffff" stroke-width="0.6"/><circle cx="322.2" cy="1366.4" r="3.4154625207471967" fill="#d8f4ff" opacity="0.32" stroke="#ffffff" stroke-width="0.6"/><circle cx="377.2" cy="40.1" r="3.468426714036911" fill="#d8f4ff" opacity="0.57" stroke="#ffffff" stroke-width="0.6"/><circle cx="1549.3" cy="785.7" r="5.845224172131384" fill="#d8f4ff" opacity="0.45" stroke="#ffffff" stroke-width="0.6"/><circle cx="49.5" cy="1164.8" r="5.3818911581356685" fill="#d8f4ff" opacity="0.56" stroke="#ffffff" stroke-width="0.6"/><circle cx="1346.3" cy="4.6" r="4.502390746360971" fill="#d8f4ff" opacity="0.27" stroke="#ffffff" stroke-width="0.6"/><circle cx="582.8" cy="1129.7" r="3.131893904097918" fill="#d8f4ff" opacity="0.29" stroke="#ffffff" stroke-width="0.6"/><circle cx="842.7" cy="1395.7" r="5.097669128766929" fill="#d8f4ff" opacity="0.39" stroke="#ffffff" stroke-width="0.6"/><circle cx="269.0" cy="1466.0" r="5.552084718450871" fill="#d8f4ff" opacity="0.46" stroke="#ffffff" stroke-width="0.6"/><circle cx="1449.5" cy="379.0" r="4.64604901517062" fill="#d8f4ff" opacity="0.4" stroke="#ffffff" stroke-width="0.6"/><circle cx="1471.7" cy="77.5" r="3.1477962994375366" fill="#d8f4ff" opacity="0.31" stroke="#ffffff" stroke-width="0.6"/><circle cx="765.6" cy="770.7" r="2.545706232638036" fill="#d8f4ff" opacity="0.44" stroke="#ffffff" stroke-width="0.6"/><circle cx="1565.0" cy="130.6" r="5.935631760516873" fill="#d8f4ff" opacity="0.46" stroke="#ffffff" stroke-width="0.6"/><circle cx="1327.0" cy="1098.1" r="2.146812044141086" fill="#d8f4ff" opacity="0.3" stroke="#ffffff" stroke-width="0.6"/><circle cx="711.9" cy="548.0" r="3.491112105203962" fill="#d8f4ff" opacity="0.31" stroke="#ffffff" stroke-width="0.6"/><circle cx="556.8" cy="1228.0" r="4.165426099276839" fill="#d8f4ff" opacity="0.42" stroke="#ffffff" stroke-width="0.6"/><circle cx="947.1" cy="1043.8" r="2.60581523025616" fill="#d8f4ff" opacity="0.48" stroke="#ffffff" stroke-width="0.6"/><circle cx="1125.6" cy="213.0" r="3.5564552520810873" fill="#d8f4ff" opacity="0.32" stroke="#ffffff" stroke-width="0.6"/><circle cx="1177.7" cy="554.4" r="5.300033631337791" fill="#d8f4ff" opacity="0.4" stroke="#ffffff" stroke-width="0.6"/><circle cx="15.0" cy="26.1" r="4.777860743714184" fill="#d8f4ff" opacity="0.45" stroke="#ffffff" stroke-width="0.6"/><circle cx="906.3" cy="109.7" r="5.738216673458743" fill="#d8f4ff" opacity="0.39" stroke="#ffffff" stroke-width="0.6"/><circle cx="492.1" cy="1510.5" r="4.189840666750753" fill="#d8f4ff" opacity="0.45" stroke="#ffffff" stroke-width="0.6"/><circle cx="102.4" cy="204.1" r="3.7125978082683355" fill="#d8f4ff" opacity="0.37" stroke="#ffffff" stroke-width="0.6"/><circle cx="851.0" cy="376.8" r="5.962894310348499" fill="#d8f4ff" opacity="0.45" stroke="#ffffff" stroke-width="0.6"/><circle cx="995.0" cy="206.6" r="4.407756020790895" fill="#d8f4ff" opacity="0.44" stroke="#ffffff" stroke-width="0.6"/><circle cx="982.8" cy="673.4" r="5.176546497787253" fill="#d8f4ff" opacity="0.46" stroke="#ffffff" stroke-width="0.6"/><circle cx="1249.1" cy="1525.2" r="3.9572763120982137" fill="#d8f4ff" opacity="0.36" stroke="#ffffff" stroke-width="0.6"/><circle cx="1548.0" cy="280.6" r="2.986933667675223" fill="#d8f4ff" opacity="0.36" stroke="#ffffff" stroke-width="0.6"/><circle cx="482.2" cy="474.7" r="2.818584644732594" fill="#d8f4ff" opacity="0.46" stroke="#ffffff" stroke-width="0.6"/><circle cx="579.0" cy="174.4" r="3.6232879481007747" fill="#d8f4ff" opacity="0.49" stroke="#ffffff" stroke-width="0.6"/><circle cx="300.7" cy="1549.6" r="5.856586597047992" fill="#d8f4ff" opacity="0.39" stroke="#ffffff" stroke-width="0.6"/><circle cx="562.9" cy="1322.2" r="3.781487265386615" fill="#d8f4ff" opacity="0.51" stroke="#ffffff" stroke-width="0.6"/><circle cx="1444.8" cy="820.0" r="4.504326232163426" fill="#d8f4ff" opacity="0.53" stroke="#ffffff" stroke-width="0.6"/><circle cx="895.2" cy="371.6" r="3.1764553626054153" fill="#d8f4ff" opacity="0.52" stroke="#ffffff" stroke-width="0.6"/><circle cx="1461.9" cy="1538.5" r="5.4392475036426085" fill="#d8f4ff" opacity="0.46" stroke="#ffffff" stroke-width="0.6"/><circle cx="49.4" cy="655.1" r="3.084469784819562" fill="#d8f4ff" opacity="0.29" stroke="#ffffff" stroke-width="0.6"/><circle cx="479.5" cy="816.3" r="5.987132185851537" fill="#d8f4ff" opacity="0.31" stroke="#ffffff" stroke-width="0.6"/><circle cx="815.2" cy="1264.3" r="4.707471013816505" fill="#d8f4ff" opacity="0.52" stroke="#ffffff" stroke-width="0.6"/><circle cx="645.7" cy="6.5" r="4.949258348737407" fill="#d8f4ff" opacity="0.45" stroke="#ffffff" stroke-width="0.6"/><circle cx="1240.1" cy="215.4" r="2.6317151521647957" fill="#d8f4ff" opacity="0.52" stroke="#ffffff" stroke-width="0.6"/><circle cx="762.0" cy="503.9" r="2.5622762210778305" fill="#d8f4ff" opacity="0.34" stroke="#ffffff" stroke-width="0.6"/><circle cx="391.9" cy="224.4" r="4.588024019367586" fill="#d8f4ff" opacity="0.28" stroke="#ffffff" stroke-width="0.6"/><circle cx="419.9" cy="532.8" r="3.092368414908105" fill="#d8f4ff" opacity="0.3" stroke="#ffffff" stroke-width="0.6"/><circle cx="349.4" cy="1257.2" r="2.0164338740377192" fill="#d8f4ff" opacity="0.47" stroke="#ffffff" stroke-width="0.6"/><circle cx="965.6" cy="707.8" r="3.6558443838871706" fill="#d8f4ff" opacity="0.52" stroke="#ffffff" stroke-width="0.6"/><circle cx="1477.7" cy="1009.6" r="4.535235509656664" fill="#d8f4ff" opacity="0.49" stroke="#ffffff" stroke-width="0.6"/><circle cx="1422.4" cy="689.4" r="5.56941752371705" fill="#d8f4ff" opacity="0.26" stroke="#ffffff" stroke-width="0.6"/><circle cx="651.6" cy="1187.9" r="4.725207041881063" fill="#d8f4ff" opacity="0.32" stroke="#ffffff" stroke-width="0.6"/><circle cx="30.1" cy="592.4" r="4.596048884707901" fill="#d8f4ff" opacity="0.41" stroke="#ffffff" stroke-width="0.6"/><circle cx="1443.2" cy="849.4" r="2.3842153933412527" fill="#d8f4ff" opacity="0.59" stroke="#ffffff" stroke-width="0.6"/><circle cx="1559.9" cy="899.9" r="5.837999526256215" fill="#d8f4ff" opacity="0.35" stroke="#ffffff" stroke-width="0.6"/><circle cx="51.9" cy="1177.9" r="4.997364409137087" fill="#d8f4ff" opacity="0.28" stroke="#ffffff" stroke-width="0.6"/><circle cx="848.7" cy="1427.3" r="3.0566925107308847" fill="#d8f4ff" opacity="0.54" stroke="#ffffff" stroke-width="0.6"/><circle cx="730.0" cy="431.3" r="4.856166858389615" fill="#d8f4ff" opacity="0.26" stroke="#ffffff" stroke-width="0.6"/><circle cx="18.4" cy="674.7" r="5.981739051416067" fill="#d8f4ff" opacity="0.34" stroke="#ffffff" stroke-width="0.6"/><circle cx="1439.4" cy="587.2" r="4.797196158081437" fill="#d8f4ff" opacity="0.27" stroke="#ffffff" stroke-width="0.6"/><circle cx="361.0" cy="272.0" r="3.1823850518983448" fill="#d8f4ff" opacity="0.46" stroke="#ffffff" stroke-width="0.6"/><circle cx="1337.6" cy="1580.1" r="2.6172501634004894" fill="#d8f4ff" opacity="0.31" stroke="#ffffff" stroke-width="0.6"/><circle cx="1070.5" cy="1384.1" r="2.505316646352127" fill="#d8f4ff" opacity="0.52" stroke="#ffffff" stroke-width="0.6"/><circle cx="866.1" cy="327.0" r="3.218260050340574" fill="#d8f4ff" opacity="0.47" stroke="#ffffff" stroke-width="0.6"/><circle cx="1487.5" cy="1463.8" r="2.59200175456229" fill="#d8f4ff" opacity="0.32" stroke="#ffffff" stroke-width="0.6"/><circle cx="106.9" cy="772.9" r="3.9756409805822748" fill="#d8f4ff" opacity="0.51" stroke="#ffffff" stroke-width="0.6"/><circle cx="778.1" cy="248.7" r="2.8158134622454867" fill="#d8f4ff" opacity="0.35" stroke="#ffffff" stroke-width="0.6"/><circle cx="498.8" cy="537.7" r="5.8856711536790485" fill="#d8f4ff" opacity="0.44" stroke="#ffffff" stroke-width="0.6"/><circle cx="414.7" cy="1538.6" r="3.148749582152438" fill="#d8f4ff" opacity="0.45" stroke="#ffffff" stroke-width="0.6"/><circle cx="1218.5" cy="299.3" r="4.168326429004902" fill="#d8f4ff" opacity="0.5" stroke="#ffffff" stroke-width="0.6"/><circle cx="291.4" cy="597.6" r="2.534113428517434" fill="#d8f4ff" opacity="0.47" stroke="#ffffff" stroke-width="0.6"/><circle cx="441.5" cy="71.8" r="4.257356060662845" fill="#d8f4ff" opacity="0.33" stroke="#ffffff" stroke-width="0.6"/><circle cx="118.6" cy="363.7" r="5.461433216163813" fill="#d8f4ff" opacity="0.44" stroke="#ffffff" stroke-width="0.6"/><circle cx="1376.6" cy="1466.2" r="4.023706328912455" fill="#d8f4ff" opacity="0.33" stroke="#ffffff" stroke-width="0.6"/><circle cx="826.1" cy="103.4" r="3.659985654375703" fill="#d8f4ff" opacity="0.52" stroke="#ffffff" stroke-width="0.6"/><circle cx="147.7" cy="1226.8" r="5.077190885923713" fill="#d8f4ff" opacity="0.52" stroke="#ffffff" stroke-width="0.6"/><circle cx="1180.4" cy="1210.7" r="2.779875367001132" fill="#d8f4ff" opacity="0.45" stroke="#ffffff" stroke-width="0.6"/><circle cx="651.3" cy="1290.9" r="2.1305297416030093" fill="#d8f4ff" opacity="0.3" stroke="#ffffff" stroke-width="0.6"/><circle cx="1240.2" cy="673.8" r="4.060392923040721" fill="#d8f4ff" opacity="0.57" stroke="#ffffff" stroke-width="0.6"/><circle cx="322.8" cy="815.0" r="4.867942626215807" fill="#d8f4ff" opacity="0.51" stroke="#ffffff" stroke-width="0.6"/><circle cx="1526.9" cy="97.5" r="5.011866772623658" fill="#d8f4ff" opacity="0.57" stroke="#ffffff" stroke-width="0.6"/><circle cx="1409.0" cy="943.3" r="4.567235382910104" fill="#d8f4ff" opacity="0.4" stroke="#ffffff" stroke-width="0.6"/><circle cx="522.5" cy="1457.2" r="5.9706238777847025" fill="#d8f4ff" opacity="0.41" stroke="#ffffff" stroke-width="0.6"/><circle cx="422.6" cy="1031.1" r="5.583950061384968" fill="#d8f4ff" opacity="0.46" stroke="#ffffff" stroke-width="0.6"/><circle cx="1168.6" cy="1509.0" r="2.1162257703732887" fill="#d8f4ff" opacity="0.29" stroke="#ffffff" stroke-width="0.6"/><circle cx="502.9" cy="1025.0" r="3.8543095922560027" fill="#d8f4ff" opacity="0.35" stroke="#ffffff" stroke-width="0.6"/><circle cx="633.0" cy="602.8" r="4.809721849067761" fill="#d8f4ff" opacity="0.39" stroke="#ffffff" stroke-width="0.6"/><circle cx="866.6" cy="896.8" r="5.436015052313113" fill="#d8f4ff" opacity="0.49" stroke="#ffffff" stroke-width="0.6"/><circle cx="88.6" cy="893.9" r="3.1535341615145023" fill="#d8f4ff" opacity="0.28" stroke="#ffffff" stroke-width="0.6"/><circle cx="789.9" cy="684.4" r="3.2357161642816736" fill="#d8f4ff" opacity="0.38" stroke="#ffffff" stroke-width="0.6"/><circle cx="1238.5" cy="1290.8" r="5.954602287436014" fill="#d8f4ff" opacity="0.43" stroke="#ffffff" stroke-width="0.6"/><circle cx="1579.0" cy="150.7" r="5.656074023376995" fill="#d8f4ff" opacity="0.49" stroke="#ffffff" stroke-width="0.6"/><circle cx="877.3" cy="985.2" r="3.120999404119978" fill="#d8f4ff" opacity="0.4" stroke="#ffffff" stroke-width="0.6"/><circle cx="500.4" cy="841.8" r="2.141760932221522" fill="#d8f4ff" opacity="0.6" stroke="#ffffff" stroke-width="0.6"/><circle cx="1252.6" cy="1478.4" r="5.668118042901479" fill="#d8f4ff" opacity="0.26" stroke="#ffffff" stroke-width="0.6"/><circle cx="1541.8" cy="1082.1" r="5.475214994405576" fill="#d8f4ff" opacity="0.43" stroke="#ffffff" stroke-width="0.6"/><circle cx="725.9" cy="57.0" r="5.828499605114018" fill="#d8f4ff" opacity="0.46" stroke="#ffffff" stroke-width="0.6"/><circle cx="432.6" cy="1087.7" r="5.589413301440073" fill="#d8f4ff" opacity="0.54" stroke="#ffffff" stroke-width="0.6"/><circle cx="1096.4" cy="1434.7" r="5.188891617069302" fill="#d8f4ff" opacity="0.57" stroke="#ffffff" stroke-width="0.6"/><circle cx="1133.7" cy="28.8" r="5.438799404533915" fill="#d8f4ff" opacity="0.45" stroke="#ffffff" stroke-width="0.6"/><circle cx="1153.6" cy="85.4" r="5.015580250180356" fill="#d8f4ff" opacity="0.32" stroke="#ffffff" stroke-width="0.6"/><circle cx="442.6" cy="208.6" r="3.283593761190869" fill="#d8f4ff" opacity="0.38" stroke="#ffffff" stroke-width="0.6"/><circle cx="107.3" cy="1365.8" r="3.1632020286374454" fill="#d8f4ff" opacity="0.41" stroke="#ffffff" stroke-width="0.6"/><circle cx="247.6" cy="113.2" r="2.4337961155366035" fill="#d8f4ff" opacity="0.47" stroke="#ffffff" stroke-width="0.6"/><circle cx="273.0" cy="988.3" r="4.6081251709709985" fill="#d8f4ff" opacity="0.38" stroke="#ffffff" stroke-width="0.6"/><circle cx="149.2" cy="1.8" r="3.8128577681620506" fill="#d8f4ff" opacity="0.33" stroke="#ffffff" stroke-width="0.6"/><circle cx="212.7" cy="1000.7" r="4.909473432252803" fill="#d8f4ff" opacity="0.27" stroke="#ffffff" stroke-width="0.6"/><circle cx="852.1" cy="50.6" r="2.72470631350811" fill="#d8f4ff" opacity="0.38" stroke="#ffffff" stroke-width="0.6"/><circle cx="883.0" cy="479.4" r="5.671532198641346" fill="#d8f4ff" opacity="0.41" stroke="#ffffff" stroke-width="0.6"/><circle cx="423.4" cy="917.5" r="4.816980637446191" fill="#d8f4ff" opacity="0.46" stroke="#ffffff" stroke-width="0.6"/><circle cx="153.4" cy="1352.1" r="5.252674863443874" fill="#d8f4ff" opacity="0.57" stroke="#ffffff" stroke-width="0.6"/><circle cx="1022.3" cy="137.9" r="5.804281467913626" fill="#d8f4ff" opacity="0.4" stroke="#ffffff" stroke-width="0.6"/><circle cx="933.5" cy="933.8" r="3.211265878636383" fill="#d8f4ff" opacity="0.57" stroke="#ffffff" stroke-width="0.6"/><circle cx="784.9" cy="881.1" r="5.999377964167698" fill="#d8f4ff" opacity="0.41" stroke="#ffffff" stroke-width="0.6"/><circle cx="1507.8" cy="1415.9" r="3.0222978727663534" fill="#d8f4ff" opacity="0.29" stroke="#ffffff" stroke-width="0.6"/><circle cx="1298.4" cy="634.6" r="2.827092372707674" fill="#d8f4ff" opacity="0.34" stroke="#ffffff" stroke-width="0.6"/><circle cx="558.9" cy="1478.5" r="5.154096823156237" fill="#d8f4ff" opacity="0.31" stroke="#ffffff" stroke-width="0.6"/><circle cx="237.3" cy="688.0" r="3.9299176986235045" fill="#d8f4ff" opacity="0.56" stroke="#ffffff" stroke-width="0.6"/></g><g><circle cx="1312.7" cy="411.5" r="0.6" fill="#f5e6c8" opacity="0.61"/><circle cx="1416.1" cy="448.8" r="0.6" fill="#e8c574" opacity="0.58"/><circle cx="1142.4" cy="1480.1" r="0.6" fill="#e8c574" opacity="0.4"/><circle cx="413.2" cy="1475.2" r="2.4" fill="#f5e6c8" opacity="0.93"/><circle cx="106.3" cy="364.5" r="1.0" fill="#f5e6c8" opacity="0.5"/><circle cx="1466.5" cy="1243.2" r="0.6" fill="#f5e6c8" opacity="0.79"/><circle cx="1241.3" cy="1187.4" r="2.0" fill="#ffffff" opacity="0.65"/><circle cx="921.1" cy="164.3" r="0.8" fill="#ffffff" opacity="0.81"/><circle cx="86.5" cy="701.5" r="2.0" fill="#e8c574" opacity="0.84"/><circle cx="330.4" cy="79.4" r="2.4" fill="#ffffff" opacity="0.76"/><circle cx="822.0" cy="1001.0" r="0.6" fill="#f5e6c8" opacity="0.38"/><circle cx="1308.6" cy="848.1" r="0.6" fill="#e8c574" opacity="0.52"/><circle cx="480.6" cy="1279.1" r="2.4" fill="#e8c574" opacity="0.67"/><circle cx="1396.2" cy="181.5" r="1.6" fill="#ffffff" opacity="0.79"/><circle cx="52.1" cy="1296.7" r="1.6" fill="#e8c574" opacity="0.77"/><circle cx="578.7" cy="1254.3" r="1.6" fill="#e8c574" opacity="0.44"/><circle cx="1405.7" cy="360.4" r="1.6" fill="#e8c574" opacity="0.75"/><circle cx="422.9" cy="1293.5" r="2.4" fill="#ffffff" opacity="0.52"/><circle cx="319.8" cy="688.9" r="1.6" fill="#f5e6c8" opacity="0.33"/><circle cx="1048.9" cy="1296.8" r="2.0" fill="#e8c574" opacity="0.51"/><circle cx="1065.3" cy="1176.8" r="0.6" fill="#e8c574" opacity="0.52"/><circle cx="485.0" cy="58.7" r="2.4" fill="#ffffff" opacity="0.59"/><circle cx="96.1" cy="1330.9" r="0.6" fill="#f5e6c8" opacity="0.82"/><circle cx="1529.5" cy="303.6" r="1.0" fill="#e8c574" opacity="0.57"/><circle cx="73.3" cy="1230.5" r="2.0" fill="#e8c574" opacity="0.62"/><circle cx="1061.7" cy="547.4" r="0.6" fill="#f5e6c8" opacity="0.88"/><circle cx="320.9" cy="1490.4" r="2.4" fill="#f5e6c8" opacity="0.35"/><circle cx="1409.9" cy="1199.3" r="0.8" fill="#f5e6c8" opacity="0.45"/><circle cx="483.7" cy="144.0" r="1.2" fill="#f5e6c8" opacity="0.45"/><circle cx="1047.9" cy="1008.9" r="1.0" fill="#ffffff" opacity="0.61"/><circle cx="1385.2" cy="819.4" r="2.0" fill="#ffffff" opacity="0.41"/><circle cx="460.8" cy="1240.8" r="1.0" fill="#e8c574" opacity="0.81"/><circle cx="1405.6" cy="879.5" r="0.6" fill="#f5e6c8" opacity="0.76"/><circle cx="174.5" cy="1233.6" r="2.4" fill="#f5e6c8" opacity="0.47"/><circle cx="235.8" cy="774.3" r="0.6" fill="#ffffff" opacity="0.41"/><circle cx="1166.6" cy="656.9" r="2.0" fill="#ffffff" opacity="0.36"/><circle cx="218.8" cy="1071.2" r="2.0" fill="#ffffff" opacity="0.93"/><circle cx="25.4" cy="1589.1" r="2.4" fill="#ffffff" opacity="0.55"/><circle cx="1237.4" cy="78.7" r="0.8" fill="#f5e6c8" opacity="0.55"/><circle cx="451.0" cy="434.8" r="0.8" fill="#f5e6c8" opacity="0.44"/><circle cx="324.6" cy="1379.4" r="2.4" fill="#e8c574" opacity="0.93"/><circle cx="294.6" cy="306.9" r="1.6" fill="#e8c574" opacity="0.83"/><circle cx="367.0" cy="908.0" r="1.2" fill="#e8c574" opacity="0.37"/><circle cx="1553.0" cy="625.9" r="1.2" fill="#e8c574" opacity="0.74"/><circle cx="328.8" cy="981.7" r="1.6" fill="#f5e6c8" opacity="0.37"/><circle cx="749.3" cy="257.8" r="1.6" fill="#e8c574" opacity="0.93"/><circle cx="1395.1" cy="1201.5" r="1.6" fill="#ffffff" opacity="0.84"/><circle cx="342.0" cy="60.6" r="0.6" fill="#ffffff" opacity="0.59"/><circle cx="224.9" cy="857.2" r="1.0" fill="#f5e6c8" opacity="0.5"/><circle cx="1007.4" cy="1173.3" r="2.0" fill="#f5e6c8" opacity="0.8"/><circle cx="475.4" cy="1035.4" r="2.4" fill="#ffffff" opacity="0.62"/><circle cx="846.1" cy="234.0" r="0.6" fill="#ffffff" opacity="0.72"/><circle cx="404.4" cy="341.2" r="2.4" fill="#ffffff" opacity="0.45"/><circle cx="59.0" cy="1556.1" r="1.6" fill="#e8c574" opacity="0.91"/><circle cx="718.2" cy="1381.2" r="1.0" fill="#e8c574" opacity="0.88"/><circle cx="631.5" cy="1586.0" r="1.6" fill="#ffffff" opacity="0.65"/><circle cx="477.3" cy="78.1" r="1.2" fill="#ffffff" opacity="0.92"/><circle cx="622.2" cy="949.6" r="0.6" fill="#ffffff" opacity="0.57"/><circle cx="101.6" cy="1457.6" r="2.4" fill="#f5e6c8" opacity="0.59"/><circle cx="1089.2" cy="973.7" r="1.0" fill="#ffffff" opacity="0.63"/><circle cx="565.5" cy="189.8" r="2.4" fill="#e8c574" opacity="0.5"/><circle cx="1509.9" cy="699.9" r="2.4" fill="#f5e6c8" opacity="0.6"/><circle cx="704.6" cy="801.3" r="1.2" fill="#ffffff" opacity="0.48"/><circle cx="389.7" cy="1176.7" r="2.0" fill="#ffffff" opacity="0.69"/><circle cx="601.4" cy="945.2" r="1.6" fill="#f5e6c8" opacity="0.86"/><circle cx="272.3" cy="1557.5" r="2.4" fill="#e8c574" opacity="0.89"/><circle cx="806.4" cy="476.3" r="1.6" fill="#f5e6c8" opacity="0.63"/><circle cx="857.8" cy="1566.1" r="1.6" fill="#ffffff" opacity="0.32"/><circle cx="745.4" cy="930.0" r="1.2" fill="#f5e6c8" opacity="0.46"/><circle cx="403.5" cy="1454.0" r="1.0" fill="#f5e6c8" opacity="0.48"/><circle cx="520.5" cy="1227.7" r="1.6" fill="#e8c574" opacity="0.51"/><circle cx="641.6" cy="60.9" r="1.0" fill="#e8c574" opacity="0.43"/><circle cx="73.4" cy="428.1" r="1.0" fill="#ffffff" opacity="0.71"/><circle cx="840.3" cy="405.5" r="1.0" fill="#ffffff" opacity="0.61"/><circle cx="1280.2" cy="1270.3" r="1.2" fill="#ffffff" opacity="0.71"/><circle cx="431.9" cy="1464.3" r="2.4" fill="#e8c574" opacity="0.36"/><circle cx="667.9" cy="1486.5" r="2.0" fill="#f5e6c8" opacity="0.76"/><circle cx="902.6" cy="1450.3" r="1.0" fill="#e8c574" opacity="0.68"/><circle cx="1101.9" cy="136.6" r="1.0" fill="#f5e6c8" opacity="0.45"/><circle cx="508.4" cy="782.3" r="0.8" fill="#ffffff" opacity="0.59"/><circle cx="1205.3" cy="1432.4" r="1.6" fill="#f5e6c8" opacity="0.66"/><circle cx="726.4" cy="1548.4" r="0.8" fill="#e8c574" opacity="0.35"/><circle cx="1293.5" cy="648.6" r="0.6" fill="#f5e6c8" opacity="0.39"/><circle cx="868.2" cy="833.2" r="0.8" fill="#e8c574" opacity="0.94"/><circle cx="923.9" cy="1012.0" r="1.2" fill="#f5e6c8" opacity="0.9"/><circle cx="869.2" cy="925.1" r="1.2" fill="#e8c574" opacity="0.76"/><circle cx="205.0" cy="756.6" r="0.8" fill="#e8c574" opacity="0.34"/><circle cx="1278.5" cy="466.8" r="0.8" fill="#f5e6c8" opacity="0.67"/><circle cx="1470.8" cy="1134.4" r="1.2" fill="#ffffff" opacity="0.38"/><circle cx="997.4" cy="528.7" r="0.6" fill="#f5e6c8" opacity="0.93"/><circle cx="926.3" cy="283.6" r="0.8" fill="#ffffff" opacity="0.44"/><circle cx="693.4" cy="339.2" r="1.6" fill="#e8c574" opacity="0.67"/><circle cx="1342.9" cy="920.8" r="1.6" fill="#ffffff" opacity="0.54"/><circle cx="1578.9" cy="345.3" r="2.0" fill="#e8c574" opacity="0.65"/><circle cx="245.1" cy="520.9" r="1.6" fill="#f5e6c8" opacity="0.56"/><circle cx="1571.6" cy="1314.6" r="0.6" fill="#e8c574" opacity="0.72"/><circle cx="1456.7" cy="1462.1" r="1.0" fill="#f5e6c8" opacity="0.67"/><circle cx="234.3" cy="1244.2" r="0.8" fill="#ffffff" opacity="0.66"/><circle cx="238.7" cy="1504.9" r="2.4" fill="#ffffff" opacity="0.74"/><circle cx="1349.5" cy="1165.2" r="0.6" fill="#f5e6c8" opacity="0.86"/><circle cx="86.3" cy="892.2" r="2.4" fill="#ffffff" opacity="0.33"/><circle cx="893.6" cy="1458.0" r="1.6" fill="#ffffff" opacity="0.32"/><circle cx="590.3" cy="1212.8" r="2.4" fill="#ffffff" opacity="0.69"/><circle cx="775.4" cy="1238.6" r="1.2" fill="#ffffff" opacity="0.92"/><circle cx="796.6" cy="1321.3" r="1.6" fill="#f5e6c8" opacity="0.42"/><circle cx="701.6" cy="1005.6" r="1.2" fill="#f5e6c8" opacity="0.75"/><circle cx="109.0" cy="448.1" r="2.4" fill="#ffffff" opacity="0.66"/><circle cx="37.3" cy="254.4" r="1.2" fill="#e8c574" opacity="0.51"/><circle cx="883.0" cy="1540.6" r="2.4" fill="#ffffff" opacity="0.41"/><circle cx="802.2" cy="264.6" r="0.6" fill="#f5e6c8" opacity="0.95"/><circle cx="362.2" cy="127.4" r="2.4" fill="#ffffff" opacity="0.42"/><circle cx="617.8" cy="1138.8" r="1.2" fill="#e8c574" opacity="0.38"/><circle cx="553.9" cy="882.9" r="1.2" fill="#ffffff" opacity="0.87"/><circle cx="560.2" cy="96.4" r="2.0" fill="#e8c574" opacity="0.81"/><circle cx="1123.9" cy="135.9" r="0.8" fill="#f5e6c8" opacity="0.89"/><circle cx="371.6" cy="1121.5" r="1.6" fill="#f5e6c8" opacity="0.85"/><circle cx="738.6" cy="392.4" r="1.0" fill="#f5e6c8" opacity="0.49"/><circle cx="1035.8" cy="727.5" r="1.0" fill="#ffffff" opacity="0.86"/><circle cx="1556.8" cy="325.6" r="2.4" fill="#ffffff" opacity="0.77"/><circle cx="1227.5" cy="356.9" r="0.6" fill="#f5e6c8" opacity="0.55"/></g><g transform="translate(800.0,480.0) scale(2.5600000000000005)"><circle r="10" fill="#7fd4f0" opacity="0.55"/><circle cx="22.0" cy="0.0" r="3.3" fill="#a7e6fa" opacity="0.8"/><circle cx="15.6" cy="15.6" r="3.6" fill="#a7e6fa" opacity="0.8"/><circle cx="0.0" cy="22.0" r="2.7" fill="#a7e6fa" opacity="0.8"/><circle cx="-15.6" cy="15.6" r="4.5" fill="#a7e6fa" opacity="0.8"/><circle cx="-22.0" cy="0.0" r="3.2" fill="#a7e6fa" opacity="0.8"/><circle cx="-15.6" cy="-15.6" r="4.4" fill="#a7e6fa" opacity="0.8"/><circle cx="-0.0" cy="-22.0" r="2.7" fill="#a7e6fa" opacity="0.8"/><circle cx="15.6" cy="-15.6" r="4.8" fill="#a7e6fa" opacity="0.8"/></g><g transform="translate(384.0,832.0) scale(2.2399999999999998)"><circle r="10" fill="#7fd4f0" opacity="0.55"/><circle cx="22.0" cy="0.0" r="3.0" fill="#a7e6fa" opacity="0.8"/><circle cx="15.6" cy="15.6" r="4.2" fill="#a7e6fa" opacity="0.8"/><circle cx="0.0" cy="22.0" r="3.0" fill="#a7e6fa" opacity="0.8"/><circle cx="-15.6" cy="15.6" r="3.3" fill="#a7e6fa" opacity="0.8"/><circle cx="-22.0" cy="0.0" r="4.3" fill="#a7e6fa" opacity="0.8"/><circle cx="-15.6" cy="-15.6" r="4.9" fill="#a7e6fa" opacity="0.8"/><circle cx="-0.0" cy="-22.0" r="3.9" fill="#a7e6fa" opacity="0.8"/><circle cx="15.6" cy="-15.6" r="3.7" fill="#a7e6fa" opacity="0.8"/></g><g transform="translate(1216.0,768.0) scale(2.2399999999999998)"><circle r="10" fill="#7fd4f0" opacity="0.55"/><circle cx="22.0" cy="0.0" r="4.0" fill="#a7e6fa" opacity="0.8"/><circle cx="15.6" cy="15.6" r="3.1" fill="#a7e6fa" opacity="0.8"/><circle cx="0.0" cy="22.0" r="4.3" fill="#a7e6fa" opacity="0.8"/><circle cx="-15.6" cy="15.6" r="4.4" fill="#a7e6fa" opacity="0.8"/><circle cx="-22.0" cy="0.0" r="3.6" fill="#a7e6fa" opacity="0.8"/><circle cx="-15.6" cy="-15.6" r="4.9" fill="#a7e6fa" opacity="0.8"/><circle cx="-0.0" cy="-22.0" r="4.6" fill="#a7e6fa" opacity="0.8"/><circle cx="15.6" cy="-15.6" r="2.5" fill="#a7e6fa" opacity="0.8"/></g><g transform="translate(576.0,1152.0) scale(2.08)"><circle r="10" fill="#7fd4f0" opacity="0.55"/><circle cx="22.0" cy="0.0" r="2.7" fill="#a7e6fa" opacity="0.8"/><circle cx="15.6" cy="15.6" r="3.9" fill="#a7e6fa" opacity="0.8"/><circle cx="0.0" cy="22.0" r="4.4" fill="#a7e6fa" opacity="0.8"/><circle cx="-15.6" cy="15.6" r="3.0" fill="#a7e6fa" opacity="0.8"/><circle cx="-22.0" cy="0.0" r="3.3" fill="#a7e6fa" opacity="0.8"/><circle cx="-15.6" cy="-15.6" r="3.3" fill="#a7e6fa" opacity="0.8"/><circle cx="-0.0" cy="-22.0" r="3.1" fill="#a7e6fa" opacity="0.8"/><circle cx="15.6" cy="-15.6" r="3.1" fill="#a7e6fa" opacity="0.8"/></g><g transform="translate(1024.0,1184.0) scale(2.08)"><circle r="10" fill="#7fd4f0" opacity="0.55"/><circle cx="22.0" cy="0.0" r="4.3" fill="#a7e6fa" opacity="0.8"/><circle cx="15.6" cy="15.6" r="3.4" fill="#a7e6fa" opacity="0.8"/><circle cx="0.0" cy="22.0" r="2.7" fill="#a7e6fa" opacity="0.8"/><circle cx="-15.6" cy="15.6" r="2.9" fill="#a7e6fa" opacity="0.8"/><circle cx="-22.0" cy="0.0" r="2.9" fill="#a7e6fa" opacity="0.8"/><circle cx="-15.6" cy="-15.6" r="3.2" fill="#a7e6fa" opacity="0.8"/><circle cx="-0.0" cy="-22.0" r="4.4" fill="#a7e6fa" opacity="0.8"/><circle cx="15.6" cy="-15.6" r="2.6" fill="#a7e6fa" opacity="0.8"/></g><g transform="translate(352.0,1056.0) scale(1.7) rotate(-18)">
        <rect x="-22" y="-6" width="34" height="12" rx="4" fill="#2a9fd6"/>
        <rect x="10" y="-3" width="16" height="6" rx="2" fill="#1c7fb0"/>
        <path d="M-14,6 L-6,6 L-6,22 L-16,22 Z" fill="#1c7fb0"/>
        <rect x="-24" y="-2" width="6" height="10" rx="2" fill="#f6d34a"/>
    </g><g transform="translate(1248.0,544.0) scale(1.5) rotate(-18)">
        <rect x="-22" y="-6" width="34" height="12" rx="4" fill="#2a9fd6"/>
        <rect x="10" y="-3" width="16" height="6" rx="2" fill="#1c7fb0"/>
        <path d="M-14,6 L-6,6 L-6,22 L-16,22 Z" fill="#1c7fb0"/>
        <rect x="-24" y="-2" width="6" height="10" rx="2" fill="#f6d34a"/>
    </g><g transform="translate(800.0,1280.0) scale(1.8)">
        <path d="M-22,0 C-22,14 22,14 22,0 L18,-4 L-18,-4 Z" fill="#d8ecf5" opacity="0.9"/>
        <ellipse cx="0" cy="-4" rx="22" ry="6" fill="#a7e6fa"/>
        <path d="M-14,-4 Q0,0 14,-4" stroke="#2a9fd6" stroke-width="2" fill="none" opacity="0.7"/>
    </g><g><use href="#sparkle" x="157.8" y="1303.3" width="16.0" height="16.0" opacity="0.66"/><use href="#sparkle" x="1085.2" y="804.1" width="9.9" height="9.9" opacity="0.76"/><use href="#sparkle" x="1449.2" y="1455.2" width="15.6" height="15.6" opacity="0.71"/><use href="#sparkle" x="322.4" y="459.4" width="18.8" height="18.8" opacity="0.76"/><use href="#sparkle" x="1069.4" y="355.5" width="10.9" height="10.9" opacity="0.66"/><use href="#sparkle" x="156.4" y="930.1" width="21.1" height="21.1" opacity="0.58"/><use href="#sparkle" x="244.0" y="1514.7" width="19.0" height="19.0" opacity="0.57"/><use href="#sparkle" x="1142.9" y="538.0" width="9.4" height="9.4" opacity="0.53"/><use href="#sparkle" x="1521.1" y="843.7" width="11.2" height="11.2" opacity="0.61"/><use href="#sparkle" x="482.3" y="553.4" width="21.7" height="21.7" opacity="0.76"/><use href="#sparkle" x="167.2" y="729.0" width="11.8" height="11.8" opacity="0.91"/><use href="#sparkle" x="1093.5" y="1242.2" width="10.6" height="10.6" opacity="0.78"/><use href="#sparkle" x="111.7" y="189.0" width="12.9" height="12.9" opacity="0.84"/><use href="#sparkle" x="936.6" y="764.0" width="21.7" height="21.7" opacity="0.54"/><use href="#sparkle" x="109.5" y="137.7" width="13.1" height="13.1" opacity="0.86"/><use href="#sparkle" x="595.9" y="-5.8" width="19.6" height="19.6" opacity="0.7"/><use href="#sparkle" x="1497.8" y="904.9" width="11.2" height="11.2" opacity="0.6"/><use href="#sparkle" x="386.5" y="1530.3" width="15.7" height="15.7" opacity="0.81"/><use href="#sparkle" x="1222.4" y="677.5" width="21.2" height="21.2" opacity="0.77"/><use href="#sparkle" x="55.0" y="113.2" width="19.7" height="19.7" opacity="0.87"/></g>
</svg>